<svg width="59" height="59" viewBox="0 0 59 59" fill="none" xmlns="http://www.w3.org/2000/svg">
<path d="M50 0H9C4.02944 0 0 4.02944 0 9V50C0 54.9706 4.02944 59 9 59H50C54.9706 59 59 54.9706 59 50V9C59 4.02944 54.9706 0 50 0Z" fill="#003AAB"/>
<path d="M43.1666 27.1667V41.3333C43.1666 41.7091 43.0174 42.0694 42.7517 42.3351C42.486 42.6007 42.1257 42.75 41.75 42.75H16.25C15.8743 42.75 15.5139 42.6007 15.2483 42.3351C14.9826 42.0694 14.8333 41.7091 14.8333 41.3333V27.1667H43.1666ZM43.1666 24.3333H14.8333V18.6667C14.8333 18.2909 14.9826 17.9306 15.2483 17.6649C15.5139 17.3993 15.8743 17.25 16.25 17.25H41.75C42.1257 17.25 42.486 17.3993 42.7517 17.6649C43.0174 17.9306 43.1666 18.2909 43.1666 18.6667V24.3333ZM33.25 35.6667V38.5H38.9166V35.6667H33.25Z" fill="white"/>
</svg>
