<svg width="59" height="59" viewBox="0 0 59 59" fill="none" xmlns="http://www.w3.org/2000/svg">
<path d="M50 0H9C4.02944 0 0 4.02944 0 9V50C0 54.9706 4.02944 59 9 59H50C54.9706 59 59 54.9706 59 50V9C59 4.02944 54.9706 0 50 0Z" fill="#00AB44"/>
<path d="M29.8334 33.1903V44.1667H15.6667C15.6662 42.4367 16.0618 40.7297 16.8231 39.1763C17.5844 37.6229 18.6912 36.2644 20.0587 35.2049C21.4261 34.1453 23.018 33.4129 24.7123 33.0637C26.4066 32.7145 28.1584 32.7578 29.8334 33.1903ZM27 31.4167C22.3038 31.4167 18.5 27.6129 18.5 22.9167C18.5 18.2204 22.3038 14.4167 27 14.4167C31.6963 14.4167 35.5 18.2204 35.5 22.9167C35.5 27.6129 31.6963 31.4167 27 31.4167ZM35.5 37.0833V32.8333H38.3334V37.0833H42.5834V39.9167H38.3334V44.1667H35.5V39.9167H31.25V37.0833H35.5Z" fill="white"/>
</svg>
