<svg width="19" height="24" viewBox="0 0 19 24" fill="none" xmlns="http://www.w3.org/2000/svg">
<path d="M9.62394 7.22201C8.74794 7.22201 7.39194 6.22601 5.96394 6.26201C4.07994 6.28601 2.35194 7.35401 1.37994 9.04601C-0.576061 12.442 0.875939 17.458 2.78394 20.218C3.71994 21.562 4.82394 23.074 6.28794 23.026C7.69194 22.966 8.21994 22.114 9.92394 22.114C11.6159 22.114 12.0959 23.026 13.5839 22.99C15.0959 22.966 16.0559 21.622 16.9799 20.266C18.0479 18.706 18.4919 17.194 18.5159 17.11C18.4799 17.098 15.5759 15.982 15.5399 12.622C15.5159 9.814 17.8319 8.47001 17.9399 8.41001C16.6199 6.47801 14.5919 6.26201 13.8839 6.21401C12.0359 6.07001 10.4879 7.22201 9.62394 7.22201ZM12.7439 4.39001C13.5239 3.45401 14.0399 2.14601 13.8959 0.850006C12.7799 0.898006 11.4359 1.59401 10.6319 2.53001C9.91194 3.35801 9.28794 4.69001 9.45594 5.96201C10.6919 6.05801 11.9639 5.32601 12.7439 4.39001Z" fill="white"/>
</svg>
