<svg width="1440" height="140" viewBox="0 0 1440 140" fill="none" xmlns="http://www.w3.org/2000/svg">
<path d="M224.68 31.1824C183.247 17.0524 140.718 35.7439 113 40.8424V139.342H584C565.994 136.247 537.73 135.954 514.807 128.417C483.182 118.019 473.606 97.2746 441.972 86.9012C414.438 77.8725 400.974 79.7861 372 75.8423C337.231 71.1099 310.96 77.645 278.7 65.0507C255.113 55.8426 248.247 39.2193 224.68 31.1824Z" fill="#D2FFEC"/>
<path d="M111.68 30.8401C71.2614 16.0933 27.7178 25.7416 0 30.8401V139H471C452.994 135.905 424.73 135.612 401.807 128.075C370.182 117.677 360.606 96.9323 328.972 86.5588C301.438 77.5301 283.897 79.5773 254.923 75.6336C220.153 70.9011 197.96 77.3026 165.7 64.7083C142.113 55.5003 135.507 39.5332 111.68 30.8401Z" fill="#18C67D"/>
<path d="M1281.28 10.1727C1310.48 -6.65727 1340.46 15.6058 1360 21.6785V139H1028C1040.69 135.313 1060.61 134.964 1076.77 125.987C1099.06 113.602 1105.81 88.8939 1128.11 76.5383C1147.52 65.7844 1157.01 68.0636 1177.44 63.3663C1201.94 57.7295 1220.46 65.5134 1243.2 50.5126C1259.83 39.545 1264.67 19.7452 1281.28 10.1727Z" fill="#D2FFEC"/>
<path d="M1361.28 9.39457C1389.77 -8.27614 1420.46 3.28523 1440 9.39457V139H1108C1120.69 135.291 1140.61 134.94 1156.77 125.909C1179.06 113.449 1185.81 88.5913 1208.11 76.161C1227.52 65.3422 1239.89 67.7952 1260.31 63.0695C1284.82 57.3988 1300.46 65.0695 1323.2 49.9781C1339.83 38.9443 1344.48 19.8113 1361.28 9.39457Z" fill="#18C67D"/>
</svg>
