<svg width="45" height="45" viewBox="0 0 45 45" fill="none" xmlns="http://www.w3.org/2000/svg">
<circle cx="22.5" cy="22.5" r="21.5" transform="rotate(180 22.5 22.5)" fill="white" stroke="#051B13" stroke-width="2"/>
<path d="M15.9375 23.4375H27.0562L23.6531 27.525C23.494 27.7165 23.4174 27.9633 23.4403 28.2112C23.4631 28.4591 23.5835 28.6878 23.775 28.8469C23.9664 29.006 24.2133 29.0826 24.4612 29.0597C24.7091 29.0369 24.9377 28.9165 25.0969 28.725L29.7844 23.1C29.8159 23.0553 29.8441 23.0083 29.8687 22.9594C29.8687 22.9125 29.8687 22.8844 29.9344 22.8375C29.9769 22.73 29.9991 22.6156 30 22.5C29.9991 22.3844 29.9769 22.27 29.9344 22.1625C29.9344 22.1156 29.9344 22.0875 29.8687 22.0406C29.8441 21.9918 29.8159 21.9448 29.7844 21.9L25.0969 16.275C25.0087 16.1692 24.8983 16.0841 24.7736 16.0258C24.6488 15.9674 24.5127 15.9373 24.375 15.9375C24.1559 15.9371 23.9437 16.0134 23.775 16.1531C23.6801 16.2318 23.6016 16.3285 23.5441 16.4376C23.4866 16.5467 23.4511 16.666 23.4398 16.7888C23.4285 16.9116 23.4415 17.0354 23.4781 17.1532C23.5147 17.2709 23.5742 17.3803 23.6531 17.475L27.0562 21.5625H15.9375C15.6888 21.5625 15.4504 21.6613 15.2746 21.8371C15.0988 22.0129 15 22.2514 15 22.5C15 22.7487 15.0988 22.9871 15.2746 23.1629C15.4504 23.3387 15.6888 23.4375 15.9375 23.4375Z" fill="#051B13"/>
</svg>
