<svg width="18" height="20" viewBox="0 0 18 20" fill="none" xmlns="http://www.w3.org/2000/svg">
<path d="M16 11H2V18H16V11ZM16 9C16 7.14348 15.2625 5.363 13.9497 4.05025C12.637 2.73749 10.8565 2 9 2C7.14348 2 5.36301 2.73749 4.05025 4.05025C2.7375 5.363 2 7.14348 2 9H16ZM3.382 1.968C4.97574 0.691061 6.9578 -0.00326013 9 -3.85718e-06C11.125 -3.85718e-06 13.078 0.735996 14.618 1.968L16.071 0.514996L17.485 1.929L16.032 3.382C17.3089 4.97574 18.0033 6.9578 18 9V19C18 19.2652 17.8946 19.5196 17.7071 19.7071C17.5196 19.8946 17.2652 20 17 20H1C0.734784 20 0.48043 19.8946 0.292893 19.7071C0.105357 19.5196 0 19.2652 0 19V9C0 6.875 0.736 4.922 1.968 3.382L0.515 1.93L1.929 0.515996L3.382 1.969V1.968ZM6 7C5.73478 7 5.48043 6.89464 5.29289 6.7071C5.10536 6.51957 5 6.26521 5 6C5 5.73478 5.10536 5.48043 5.29289 5.29289C5.48043 5.10535 5.73478 5 6 5C6.26522 5 6.51957 5.10535 6.70711 5.29289C6.89464 5.48043 7 5.73478 7 6C7 6.26521 6.89464 6.51957 6.70711 6.7071C6.51957 6.89464 6.26522 7 6 7ZM12 7C11.7348 7 11.4804 6.89464 11.2929 6.7071C11.1054 6.51957 11 6.26521 11 6C11 5.73478 11.1054 5.48043 11.2929 5.29289C11.4804 5.10535 11.7348 5 12 5C12.2652 5 12.5196 5.10535 12.7071 5.29289C12.8946 5.48043 13 5.73478 13 6C13 6.26521 12.8946 6.51957 12.7071 6.7071C12.5196 6.89464 12.2652 7 12 7Z" fill="white"/>
</svg>
