<svg width="64" height="64" viewBox="0 0 64 64" fill="none" xmlns="http://www.w3.org/2000/svg">
<circle cx="32" cy="32" r="32" fill="#FFF8DA"/>
<path d="M32.2031 29.4609H33.7266V26.4141H32.2031V23.3672V20.3203H19V23.3672V26.4141H20.5234V29.4609H19V32.5078V35.5547H20.5234V38.6016H19V41.6484H32.2031V38.6016H33.7266V35.5547H32.2031V32.5078V29.4609Z" fill="#FFEA84"/>
<path d="M32.2031 29.4609H33.7266V26.4141H32.2031V23.3672V20.3203H26.3633V41.6484H32.2031V38.6016H33.7266V35.5547H32.2031V32.5078V29.4609Z" fill="#FFDC40"/>
<path d="M33.7266 35.5547H20.5234V38.6016H33.7266V35.5547Z" fill="#FFDC40"/>
<path d="M32.2031 29.4609H19V32.5078H32.2031V29.4609Z" fill="#FFDC40"/>
<path d="M32.2031 23.3672H19V26.4141H32.2031V23.3672Z" fill="#FFDC40"/>
<path d="M32.2031 29.4609H26.3633V32.5078H32.2031V29.4609Z" fill="#FFAB15"/>
<path d="M32.2031 23.3672H26.3633V26.4141H32.2031V23.3672Z" fill="#FFAB15"/>
<path d="M33.7266 35.5547H26.3633V38.6016H33.7266V35.5547Z" fill="#FFAB15"/>
<path d="M37.6367 43.6797C33.5766 43.6797 30.2734 40.3765 30.2734 36.3164C30.2734 32.2563 33.5766 28.9531 37.6367 28.9531C41.6968 28.9531 45 32.2563 45 36.3164C45 40.3765 41.6968 43.6797 37.6367 43.6797Z" fill="#76CC5B"/>
<path d="M37.6367 28.9531V43.6797C41.6968 43.6797 45 40.3765 45 36.3164C45 32.2563 41.6968 28.9531 37.6367 28.9531Z" fill="#599944"/>
<path d="M39.9219 37.8398C39.9219 36.5798 38.8968 35.5547 37.6367 35.5547C37.2167 35.5547 36.875 35.213 36.875 34.793C36.875 34.6228 36.9297 34.4619 37.0334 34.3279C37.1945 34.1195 37.469 34.015 37.7493 34.0551L39.3064 34.2775L39.5218 32.7693L38.3984 32.6089V31.7461H36.875V32.6506C36.4647 32.7919 36.0982 33.0467 35.828 33.3962C35.5163 33.7994 35.3516 34.2825 35.3516 34.793C35.3516 36.053 36.3767 37.0781 37.6367 37.0781C38.0567 37.0781 38.3984 37.4198 38.3984 37.8398C38.3984 38.2209 38.1145 38.5455 37.7379 38.595C37.6998 38.6 37.6521 38.6001 37.5958 38.5952L35.9244 38.452L35.7943 39.9699L36.875 40.0625V40.8867H38.3984V39.994C39.2926 39.677 39.9219 38.8209 39.9219 37.8398Z" fill="#F2F2F4"/>
<path d="M37.6367 31.7461V34.0468C37.6739 34.0471 37.7115 34.0496 37.7493 34.055L39.3064 34.2774L39.5218 32.7693L38.3984 32.6089V31.7461H37.6367Z" fill="#DFDFE1"/>
<path d="M37.6367 35.5547V37.0781C38.0567 37.0781 38.3984 37.4198 38.3984 37.8398C38.3984 38.2209 38.1145 38.5455 37.7379 38.595C37.7094 38.5987 37.6755 38.5997 37.6367 38.598V40.8867H38.3984V39.994C39.2926 39.677 39.9219 38.8209 39.9219 37.8398C39.9219 36.5798 38.8968 35.5547 37.6367 35.5547Z" fill="#DFDFE1"/>
</svg>
