<svg width="65" height="64" viewBox="0 0 65 64" fill="none" xmlns="http://www.w3.org/2000/svg">
<circle cx="32.0646" cy="32" r="32" fill="#FFF3E3"/>
<path d="M40.069 26.7586L37.5631 28.8232C37.4503 28.9172 37.291 28.9394 37.1551 28.8801C37.0192 28.8208 36.9317 28.6908 36.931 28.5473V25.8965L40.069 26.7586Z" fill="#EFC319"/>
<path d="M32 24.6035L29.0208 25.6768C28.9252 25.7109 28.8618 25.7986 28.8618 25.8966C28.8618 25.9946 28.9252 26.0823 29.0208 26.1164L32 27.1897" fill="#E54C3C"/>
<path d="M32 28.9137C31.7524 28.9137 31.5517 28.7208 31.5517 28.4827V24.1724C31.5517 23.9343 31.7524 23.7413 32 23.7413C32.2475 23.7413 32.4482 23.9343 32.4482 24.1724V28.4827C32.4482 28.7208 32.2475 28.9137 32 28.9137Z" fill="#7F6E5D"/>
<path d="M36.931 33.2242L32 34.0862L27.069 33.2242C27.069 30.6056 29.2767 28.4828 32 28.4828C34.7233 28.4828 36.931 30.6056 36.931 33.2242Z" fill="#CAB191"/>
<path d="M44.1035 19H35.1379C34.6428 19 34.2414 19.386 34.2414 19.8621V25.8966C34.2414 26.3727 34.6428 26.7586 35.1379 26.7586H44.1035C44.5986 26.7586 45 26.3727 45 25.8966V19.8621C45 19.386 44.5986 19 44.1035 19Z" fill="#F2D45B"/>
<path d="M38.7241 34.0862V35.8103H25.2758V34.0862C25.2773 33.6107 25.6779 33.2255 26.1724 33.2241H37.8276C38.3221 33.2255 38.7226 33.6107 38.7241 34.0862Z" fill="#A48F78"/>
<path d="M44.5517 35.3793V43.1379H19.4483V35.3793C19.4483 35.1412 19.649 34.9482 19.8965 34.9482H44.1034C44.351 34.9482 44.5517 35.1412 44.5517 35.3793Z" fill="#CAB191"/>
<path d="M39.1724 42.2759V37.5517C39.1723 37.2707 39.0298 37.0074 38.7905 36.8461L32.2542 32.4392C32.1015 32.3367 31.8985 32.3367 31.7458 32.4392L25.2095 36.8448C24.9698 37.0064 24.8272 37.2703 24.8276 37.5517L24.8276 42.2759" fill="#F4EEC9"/>
<path d="M27.9655 37.5345C28.4607 37.5345 28.8621 37.9205 28.8621 38.3966V42.2759H27.069V38.3966C27.069 37.9205 27.4704 37.5345 27.9655 37.5345Z" fill="#5F5346"/>
<path d="M36.0345 37.5345C36.5296 37.5345 36.9311 37.9205 36.9311 38.3966V42.2759H35.1379V38.3966C35.1379 37.9205 35.5393 37.5345 36.0345 37.5345Z" fill="#5F5346"/>
<path d="M32 36.6724C32.4951 36.6724 32.8965 37.0583 32.8965 37.5344V42.2758H31.1034V37.5344C31.1034 37.0583 31.5048 36.6724 32 36.6724Z" fill="#5F5346"/>
<path d="M21.2414 38.3965C20.9938 38.3965 20.7931 38.2035 20.7931 37.9655V37.1034C20.7931 36.8653 20.9938 36.6724 21.2414 36.6724C21.489 36.6724 21.6897 36.8653 21.6897 37.1034V37.9655C21.6897 38.2035 21.489 38.3965 21.2414 38.3965Z" fill="#464F5D"/>
<path d="M23.0345 38.3965C22.7869 38.3965 22.5862 38.2035 22.5862 37.9655V37.1034C22.5862 36.8653 22.7869 36.6724 23.0345 36.6724C23.2821 36.6724 23.4828 36.8653 23.4828 37.1034V37.9655C23.4828 38.2035 23.2821 38.3965 23.0345 38.3965Z" fill="#464F5D"/>
<path d="M21.2414 40.9827C20.9938 40.9827 20.7931 40.7897 20.7931 40.5517V39.6896C20.7931 39.4515 20.9938 39.2585 21.2414 39.2585C21.489 39.2585 21.6897 39.4515 21.6897 39.6896V40.5517C21.6897 40.7897 21.489 40.9827 21.2414 40.9827Z" fill="#464F5D"/>
<path d="M23.0345 40.9827C22.7869 40.9827 22.5862 40.7897 22.5862 40.5517V39.6896C22.5862 39.4515 22.7869 39.2585 23.0345 39.2585C23.2821 39.2585 23.4828 39.4515 23.4828 39.6896V40.5517C23.4828 40.7897 23.2821 40.9827 23.0345 40.9827Z" fill="#464F5D"/>
<path d="M40.9655 38.3965C40.718 38.3965 40.5173 38.2035 40.5173 37.9655V37.1034C40.5173 36.8653 40.718 36.6724 40.9655 36.6724C41.2131 36.6724 41.4138 36.8653 41.4138 37.1034V37.9655C41.4138 38.2035 41.2131 38.3965 40.9655 38.3965Z" fill="#464F5D"/>
<path d="M42.7586 38.3965C42.5111 38.3965 42.3104 38.2035 42.3104 37.9655V37.1034C42.3104 36.8653 42.5111 36.6724 42.7586 36.6724C43.0062 36.6724 43.2069 36.8653 43.2069 37.1034V37.9655C43.2069 38.2035 43.0062 38.3965 42.7586 38.3965Z" fill="#464F5D"/>
<path d="M40.9655 40.9827C40.718 40.9827 40.5173 40.7897 40.5173 40.5517V39.6896C40.5173 39.4515 40.718 39.2585 40.9655 39.2585C41.2131 39.2585 41.4138 39.4515 41.4138 39.6896V40.5517C41.4138 40.7897 41.2131 40.9827 40.9655 40.9827Z" fill="#464F5D"/>
<path d="M42.7586 40.9827C42.5111 40.9827 42.3104 40.7897 42.3104 40.5517V39.6896C42.3104 39.4515 42.5111 39.2585 42.7586 39.2585C43.0062 39.2585 43.2069 39.4515 43.2069 39.6896V40.5517C43.2069 40.7897 43.0062 40.9827 42.7586 40.9827Z" fill="#464F5D"/>
<path d="M44.5517 42.2759H19.4483C19.2007 42.2759 19 42.4689 19 42.7069V43.569C19 43.807 19.2007 44 19.4483 44H44.5517C44.7993 44 45 43.807 45 43.569V42.7069C45 42.4689 44.7993 42.2759 44.5517 42.2759Z" fill="#7ECF9D"/>
<path d="M43.2069 21.5862H36.0345C35.7869 21.5862 35.5862 21.3932 35.5862 21.1552C35.5862 20.9171 35.7869 20.7241 36.0345 20.7241H43.2069C43.4544 20.7241 43.6551 20.9171 43.6551 21.1552C43.6551 21.3932 43.4544 21.5862 43.2069 21.5862Z" fill="#F4EEC9"/>
<path d="M43.2069 23.3103H38.2759C38.0283 23.3103 37.8276 23.1173 37.8276 22.8793C37.8276 22.6412 38.0283 22.4482 38.2759 22.4482H43.2069C43.4545 22.4482 43.6552 22.6412 43.6552 22.8793C43.6552 23.1173 43.4545 23.3103 43.2069 23.3103Z" fill="#F4EEC9"/>
<path d="M36.4827 23.3103H36.0345C35.7869 23.3103 35.5862 23.1173 35.5862 22.8793C35.5862 22.6412 35.7869 22.4482 36.0345 22.4482H36.4827C36.7303 22.4482 36.931 22.6412 36.931 22.8793C36.931 23.1173 36.7303 23.3103 36.4827 23.3103Z" fill="#F4EEC9"/>
<path d="M40.5172 25.0344H36.0345C35.7869 25.0344 35.5862 24.8415 35.5862 24.6034C35.5862 24.3653 35.7869 24.1724 36.0345 24.1724H40.5172C40.7648 24.1724 40.9655 24.3653 40.9655 24.6034C40.9655 24.8415 40.7648 25.0344 40.5172 25.0344Z" fill="#F4EEC9"/>
</svg>
