<svg width="65" height="64" viewBox="0 0 65 64" fill="none" xmlns="http://www.w3.org/2000/svg">
<circle cx="32.8279" cy="32" r="32" fill="#FFDCD6"/>
<path d="M29.8972 27.0266C29.9597 26.8524 30.1349 26.7451 30.3186 26.7691C30.5021 26.793 30.6442 26.9415 30.6599 27.1259L31.2891 34.4766L32.4673 30.23C32.5154 30.0564 32.6746 29.9371 32.8554 29.9416C33.0354 29.9456 33.1899 30.0713 33.2304 30.2468L33.8864 33.093L35.0066 28.3866C35.0503 28.2024 35.2193 28.0764 35.4081 28.0844C35.5971 28.0934 35.7531 28.2357 35.7795 28.4231L36.6154 34.3829L36.9902 33.1716C37.0413 33.0068 37.1937 32.8944 37.3663 32.8944H46.2319V30.865C46.2319 28.9916 44.7131 27.4724 42.8386 27.4724H37.4523V22.0859C37.4523 20.2116 35.9335 18.693 34.0593 18.693H32.0996H31.7905C29.9168 18.693 28.3971 20.2117 28.3971 22.0859V27.4723H23.0105C21.1378 27.4723 19.6182 28.9915 19.6182 30.8649V32.9376H27.7761L29.8972 27.0266Z" fill="#E74424"/>
<path d="M36.8465 36.2998C36.7919 36.4759 36.6221 36.5908 36.4388 36.5758C36.255 36.5609 36.1061 36.4207 36.0805 36.238L35.2895 30.5987L34.2633 34.9105C34.2211 35.0879 34.0626 35.2131 33.8804 35.2131C33.8799 35.2131 33.8794 35.2131 33.8789 35.2131C33.6961 35.2124 33.5378 35.086 33.4967 34.9078L32.8116 31.9353L31.463 36.796C31.4153 36.9677 31.259 37.0844 31.0839 37.0844C31.0717 37.0844 31.0595 37.0838 31.0472 37.0828C30.8574 37.0651 30.7075 36.9142 30.6914 36.7243L30.0294 28.99L28.424 33.4645C28.3679 33.621 28.2196 33.7253 28.0534 33.7253H19.6707C19.9505 35.3171 21.3394 36.527 23.0107 36.527H28.3973V41.9135C28.3973 43.7878 29.917 45.3072 31.7907 45.3072H32.0998H34.0595C35.9337 45.3072 37.4525 43.7877 37.4525 41.9135V36.527H42.8388C44.5267 36.527 45.9257 35.2952 46.1875 33.682H37.6567L36.8465 36.2998Z" fill="#E74424"/>
<path d="M47.6065 32.8944H46.232H37.3664C37.1939 32.8944 37.0413 33.0068 36.9903 33.1716L36.6155 34.3829L35.7796 28.423C35.7533 28.2357 35.5972 28.0934 35.4082 28.0844C35.2194 28.0763 35.0504 28.2024 35.0067 28.3866L33.8865 33.093L33.2305 30.2468C33.19 30.0713 33.0355 29.9456 32.8555 29.9416C32.6747 29.9371 32.5156 30.0564 32.4674 30.23L31.2892 34.4766L30.6601 27.1259C30.6443 26.9415 30.5022 26.7929 30.3187 26.7691C30.135 26.7451 29.9598 26.8524 29.8973 27.0266L27.7764 32.9377H19.6183H18.3937C18.1763 32.9377 18 33.114 18 33.3315C18 33.5489 18.1762 33.7252 18.3937 33.7252H19.6706H28.0533C28.2196 33.7252 28.3677 33.621 28.4238 33.4644L30.0292 28.9899L30.6912 36.7242C30.7075 36.9141 30.8573 37.065 31.047 37.0827C31.0593 37.0837 31.0716 37.0843 31.0837 37.0843C31.2589 37.0843 31.4151 36.9676 31.4629 36.7959L32.8114 31.9351L33.4965 34.9076C33.5376 35.086 33.6959 35.2123 33.8788 35.213C33.8793 35.213 33.8798 35.213 33.8802 35.213C34.0624 35.213 34.2209 35.0878 34.2632 34.9104L35.2894 30.5986L36.0804 36.2379C36.1059 36.4206 36.2549 36.5609 36.4387 36.5758C36.6219 36.5907 36.7918 36.4758 36.8464 36.2997L37.6565 33.6817H46.1873H47.6064C47.8238 33.6817 48 33.5055 48 33.2881C48.0001 33.0706 47.8239 32.8944 47.6065 32.8944Z" fill="#F7F1E6"/>
</svg>
