<svg width="16" height="17" viewBox="0 0 16 17" fill="none" xmlns="http://www.w3.org/2000/svg">
<path d="M3.08425 1.80676C4.47877 0.742645 6.21308 0.164044 8 0.166758C9.85938 0.166758 11.5682 0.780091 12.9158 1.80676L14.1871 0.595924L15.4244 1.77426L14.153 2.98509C15.2703 4.31321 15.8778 5.96493 15.875 7.66676V8.50009H0.125V7.66676C0.125 5.89592 0.769 4.26842 1.847 2.98509L0.575625 1.77509L1.81287 0.596758L3.08425 1.80759V1.80676ZM0.125 10.1668H15.875V16.0001C15.875 16.2211 15.7828 16.4331 15.6187 16.5893C15.4546 16.7456 15.2321 16.8334 15 16.8334H1C0.767936 16.8334 0.545376 16.7456 0.381282 16.5893C0.217187 16.4331 0.125 16.2211 0.125 16.0001V10.1668ZM5.375 6.00009C5.60706 6.00009 5.82962 5.91229 5.99372 5.75601C6.15781 5.59973 6.25 5.38777 6.25 5.16676C6.25 4.94574 6.15781 4.73378 5.99372 4.5775C5.82962 4.42122 5.60706 4.33342 5.375 4.33342C5.14294 4.33342 4.92038 4.42122 4.75628 4.5775C4.59219 4.73378 4.5 4.94574 4.5 5.16676C4.5 5.38777 4.59219 5.59973 4.75628 5.75601C4.92038 5.91229 5.14294 6.00009 5.375 6.00009ZM10.625 6.00009C10.8571 6.00009 11.0796 5.91229 11.2437 5.75601C11.4078 5.59973 11.5 5.38777 11.5 5.16676C11.5 4.94574 11.4078 4.73378 11.2437 4.5775C11.0796 4.42122 10.8571 4.33342 10.625 4.33342C10.3929 4.33342 10.1704 4.42122 10.0063 4.5775C9.84219 4.73378 9.75 4.94574 9.75 5.16676C9.75 5.38777 9.84219 5.59973 10.0063 5.75601C10.1704 5.91229 10.3929 6.00009 10.625 6.00009Z" fill="white"/>
</svg>
