<svg width="65" height="64" viewBox="0 0 65 64" fill="none" xmlns="http://www.w3.org/2000/svg">
<circle cx="32.8279" cy="32" r="32" fill="#DCEAFF"/>
<g clip-path="url(#clip0_86_316)">
<path d="M33.5 44C33.4256 44 33.3512 43.9887 33.2794 43.966C30.4202 43.0631 27.972 41.3075 26.1995 38.8891C24.4271 36.4706 23.4902 33.6074 23.4902 30.6089V23.1504C23.4902 22.7459 23.8182 22.418 24.2227 22.418C26.3381 22.418 28.2615 21.258 29.2464 19.3907C29.3731 19.1504 29.6225 19 29.8942 19H37.1058C37.3774 19 37.6269 19.1504 37.7536 19.3907C38.7385 21.258 40.6619 22.418 42.7729 22.418C43.1774 22.418 43.5098 22.7459 43.5098 23.1504V30.6089C43.5098 33.6074 42.5729 36.4706 40.8005 38.889C39.028 41.3075 36.5798 43.063 33.7206 43.966C33.6488 43.9887 33.5744 44 33.5 44Z" fill="#9DDFF6"/>
<path d="M42.7729 22.418C40.6619 22.418 38.7385 21.258 37.7536 19.3907C37.6269 19.1504 37.3775 19 37.1058 19H33.5V44C33.5744 44 33.6488 43.9887 33.7206 43.966C36.5798 43.0631 39.028 41.3075 40.8005 38.8891C42.5729 36.4706 43.5098 33.6074 43.5098 30.6089V23.1504C43.5098 22.7459 43.1774 22.418 42.7729 22.418Z" fill="#6BA7FF"/>
<path d="M33.5 40.8839C33.4041 40.8839 33.3083 40.8651 33.2181 40.8275C29.0883 39.1054 26.4199 35.0944 26.4199 30.609V25.6125C26.4199 25.2962 26.623 25.0156 26.9236 24.9167C28.4782 24.4057 29.8473 23.4658 30.883 22.1986C31.0221 22.0284 31.2302 21.9297 31.45 21.9297H35.5499C35.7697 21.9297 35.978 22.0284 36.117 22.1986C37.1526 23.466 38.5218 24.406 40.0764 24.9172C40.377 25.0161 40.58 25.2967 40.58 25.613V30.609C40.58 35.0944 37.9116 39.1054 33.7818 40.8274C33.6917 40.865 33.5958 40.8839 33.5 40.8839Z" fill="#F5F5FF"/>
<path d="M40.0765 24.9172C38.5218 24.406 37.1527 23.466 36.1171 22.1986C35.978 22.0284 35.7697 21.9297 35.5499 21.9297H33.5V40.8839C33.5958 40.8839 33.6917 40.8651 33.7819 40.8275C37.9117 39.1054 40.5801 35.0944 40.5801 30.609V25.613C40.5801 25.2967 40.377 25.0161 40.0765 24.9172Z" fill="#E2E7FA"/>
<path d="M32.3607 34.4666C32.1733 34.4666 31.9858 34.3951 31.8429 34.252L29.5642 31.9734C29.2782 31.6874 29.2782 31.2236 29.5642 30.9376C29.8502 30.6516 30.314 30.6516 30.6 30.9376L32.3608 32.6983L36.4002 28.659C36.6862 28.3729 37.1499 28.3729 37.436 28.659C37.722 28.945 37.722 29.4087 37.436 29.6948L32.8787 34.252C32.7356 34.3951 32.5482 34.4666 32.3607 34.4666Z" fill="#6B61B1"/>
<path d="M36.4001 28.659L33.5 31.5591V33.6306L37.4358 29.6948C37.7219 29.4088 37.7219 28.9451 37.4358 28.659C37.1499 28.3729 36.6861 28.3729 36.4001 28.659Z" fill="#453D81"/>
</g>
<defs>
<clipPath id="clip0_86_316">
<rect width="25" height="25" fill="white" transform="translate(21 19)"/>
</clipPath>
</defs>
</svg>
