<svg width="41" height="40" viewBox="0 0 41 40" fill="none" xmlns="http://www.w3.org/2000/svg">
<path d="M16.1333 20.0384C17.2586 21.0134 18.6779 21.5836 20.165 21.6582C21.6521 21.7328 23.1213 21.3074 24.3385 20.4499C25.5557 19.5924 26.4508 18.352 26.8811 16.9266C27.3114 15.5012 27.2522 13.9728 26.7128 12.585C26.1735 11.1972 25.1851 10.0299 23.9051 9.26912C22.6252 8.50837 21.1275 8.19799 19.6506 8.38745C18.1738 8.57691 16.8029 9.25531 15.7564 10.3145C14.71 11.3737 14.0482 12.7527 13.8767 14.2317C13.2833 17.2484 13.29 20.8434 14.65 24.0651C16.0867 27.4651 18.985 30.3317 23.9333 31.6267C24.0927 31.6701 24.259 31.6814 24.4228 31.6601C24.5866 31.6387 24.7445 31.5852 24.8874 31.5025C25.0303 31.4198 25.1555 31.3095 25.2556 31.1782C25.3557 31.0468 25.4288 30.897 25.4706 30.7372C25.5124 30.5775 25.5222 30.411 25.4993 30.2474C25.4765 30.0839 25.4214 29.9265 25.3374 29.7843C25.2533 29.6422 25.1419 29.5181 25.0096 29.4192C24.8774 29.3204 24.7268 29.2487 24.5667 29.2084C20.3483 28.1034 18.08 25.7584 16.9533 23.0917C16.547 22.1144 16.2713 21.0878 16.1333 20.0384V20.0384Z" fill="url(#paint0_linear_95_190)"/>
<defs>
<linearGradient id="paint0_linear_95_190" x1="13.5008" y1="8.33325" x2="33.8527" y2="20.25" gradientUnits="userSpaceOnUse">
<stop stop-color="#1ECB61"/>
<stop offset="1" stop-color="#57007B"/>
</linearGradient>
</defs>
</svg>
