<svg width="32" height="35" viewBox="0 0 32 35" fill="none" xmlns="http://www.w3.org/2000/svg">
<path d="M6.1685 3.77868C8.95755 1.59725 12.4262 0.411113 16 0.416676C19.7188 0.416676 23.1365 1.67401 25.8315 3.77868L28.3742 1.29647L30.8488 3.71205L28.306 6.19426C30.5406 8.9169 31.7557 12.3029 31.75 15.7917V17.5H0.25V15.7917C0.25 12.1615 1.538 8.82509 3.694 6.19426L1.15125 3.71376L3.62575 1.29818L6.1685 3.78038V3.77868ZM0.25 20.9167H31.75V32.875C31.75 33.3281 31.5656 33.7626 31.2374 34.083C30.9092 34.4034 30.4641 34.5833 30 34.5833H2C1.53587 34.5833 1.09075 34.4034 0.762563 34.083C0.434374 33.7626 0.25 33.3281 0.25 32.875V20.9167ZM10.75 12.375C11.2141 12.375 11.6592 12.195 11.9874 11.8747C12.3156 11.5543 12.5 11.1198 12.5 10.6667C12.5 10.2136 12.3156 9.77908 11.9874 9.4587C11.6592 9.13833 11.2141 8.95834 10.75 8.95834C10.2859 8.95834 9.84075 9.13833 9.51256 9.4587C9.18437 9.77908 9 10.2136 9 10.6667C9 11.1198 9.18437 11.5543 9.51256 11.8747C9.84075 12.195 10.2859 12.375 10.75 12.375V12.375ZM21.25 12.375C21.7141 12.375 22.1592 12.195 22.4874 11.8747C22.8156 11.5543 23 11.1198 23 10.6667C23 10.2136 22.8156 9.77908 22.4874 9.4587C22.1592 9.13833 21.7141 8.95834 21.25 8.95834C20.7859 8.95834 20.3408 9.13833 20.0126 9.4587C19.6844 9.77908 19.5 10.2136 19.5 10.6667C19.5 11.1198 19.6844 11.5543 20.0126 11.8747C20.3408 12.195 20.7859 12.375 21.25 12.375V12.375Z" fill="white"/>
</svg>
