<svg width="59" height="59" viewBox="0 0 59 59" fill="none" xmlns="http://www.w3.org/2000/svg">
<path d="M50 0H9C4.02944 0 0 4.02944 0 9V50C0 54.9706 4.02944 59 9 59H50C54.9706 59 59 54.9706 59 50V9C59 4.02944 54.9706 0 50 0Z" fill="#FF7A00"/>
<path d="M29 14.8333C36.8242 14.8333 43.1666 21.1758 43.1666 29C43.1666 36.8243 36.8242 43.1667 29 43.1667C21.1757 43.1667 14.8333 36.8243 14.8333 29C14.8333 21.1758 21.1757 14.8333 29 14.8333ZM29.7083 21.9167H23.3333V36.0833H26.1666V31.8333H29.3074L32.3957 36.0833H35.8977L32.2852 31.1108C33.1902 30.561 33.8954 29.7359 34.2975 28.7563C34.6997 27.7766 34.7776 26.694 34.52 25.6669C34.2623 24.6398 33.6826 23.7222 32.8657 23.0484C32.0488 22.3745 31.0377 21.9799 29.9803 21.9223L29.7083 21.9167ZM29.7083 24.75C30.2366 24.75 30.7459 24.9468 31.1369 25.302C31.5279 25.6571 31.7727 26.1452 31.8234 26.671L31.8333 26.875L31.8234 27.079C31.7764 27.5701 31.5599 28.0294 31.2112 28.3784C30.8626 28.7273 30.4033 28.9441 29.9123 28.9915L29.7083 29H26.1666V24.75H29.7083Z" fill="white"/>
</svg>
