<svg width="41" height="40" viewBox="0 0 41 40" fill="none" xmlns="http://www.w3.org/2000/svg">
<path d="M24.8666 20.0384C23.7413 21.0134 22.322 21.5836 20.835 21.6582C19.3479 21.7328 17.8787 21.3074 16.6615 20.4499C15.4443 19.5924 14.5492 18.352 14.1189 16.9266C13.6886 15.5012 13.7478 13.9728 14.2871 12.585C14.8265 11.1972 15.8149 10.0299 17.0948 9.26912C18.3748 8.50837 19.8725 8.19799 21.3493 8.38745C22.8262 8.57691 24.1971 9.25531 25.2435 10.3145C26.29 11.3737 26.9517 12.7527 27.1233 14.2317C27.7166 17.2484 27.71 20.8434 26.35 24.0651C24.9133 27.4651 22.015 30.3317 17.0666 31.6267C16.9073 31.6701 16.7409 31.6814 16.5772 31.6601C16.4134 31.6387 16.2555 31.5852 16.1126 31.5025C15.9696 31.4198 15.8445 31.3095 15.7444 31.1782C15.6443 31.0468 15.5712 30.897 15.5294 30.7372C15.4875 30.5775 15.4778 30.411 15.5006 30.2474C15.5235 30.0839 15.5786 29.9265 15.6626 29.7843C15.7467 29.6422 15.858 29.5181 15.9903 29.4192C16.1226 29.3204 16.2732 29.2487 16.4333 29.2084C20.6516 28.1034 22.92 25.7584 24.0466 23.0917C24.453 22.1144 24.7287 21.0878 24.8666 20.0384V20.0384Z" fill="url(#paint0_linear_95_187)"/>
<defs>
<linearGradient id="paint0_linear_95_187" x1="27.4991" y1="8.33325" x2="7.14726" y2="20.25" gradientUnits="userSpaceOnUse">
<stop stop-color="#1ECB61"/>
<stop offset="1" stop-color="#57007B"/>
</linearGradient>
</defs>
</svg>
