<svg width="65" height="64" viewBox="0 0 65 64" fill="none" xmlns="http://www.w3.org/2000/svg">
<circle cx="32.0646" cy="32" r="32" fill="#FFEED2"/>
<path d="M20.1388 26.4391C20.1393 26.5237 20.1547 26.6081 20.1848 26.6883L20.5719 27.7515C20.6952 28.0802 21.0371 28.2726 21.3821 28.2074L25.2359 27.4436C25.5305 27.3879 25.7599 27.156 25.8125 26.8609L25.9458 26.7252L26.208 25.2548L25.9943 25.1365L20.2375 26.255L20.1388 26.4391Z" fill="#FFA442"/>
<path d="M21.2895 28.2999L21.4728 28.2652L25.3285 27.5361C25.623 27.4804 25.8524 27.2485 25.905 26.9534L25.932 26.8021L25.9457 26.7252L21.289 27.6058C21.1785 27.6267 21.0689 27.5651 21.0294 27.4597L20.74 26.6882C20.694 26.5655 20.6818 26.4357 20.7054 26.3073L20.5521 26.1602L20.0906 26.283L20.0001 26.4422C20.0012 26.5271 20.0161 26.6086 20.0459 26.6883L20.4794 27.8441C20.5945 28.1661 20.9543 28.3688 21.2895 28.2999Z" fill="#FF8A3C"/>
<path d="M37.0233 25.2549L37.2337 26.8147C37.2864 27.1098 37.5158 27.3416 37.8103 27.3974L41.5068 28.1336C41.8517 28.1988 42.3048 28.1266 42.428 27.7979L42.5504 27.7647L42.954 26.6883C42.9837 26.6091 42.9992 26.5256 43 26.442L42.8656 26.2425L37.0017 25.1099L37.0233 25.2549Z" fill="#FFA442"/>
<path d="M37.9289 26.8907C37.8352 26.873 37.762 26.7996 37.7444 26.7059L37.5748 25.7985C37.5467 25.6411 37.5178 25.5033 37.4739 25.3853L37.326 25.2426L36.8483 25.1731L36.7918 25.2549L37.0741 26.8374C37.0999 27.1702 37.3321 27.4792 37.6714 27.5362L41.7104 28.3C42.0553 28.3653 42.3972 28.1729 42.5205 27.8442L42.5503 27.7647L37.9289 26.8907Z" fill="#FF8A3C"/>
<path d="M36.8721 25.173C36.8312 24.9434 36.5513 24.858 36.3181 24.858H36.1829L36.0756 24.7192L32.9524 24.7155L32.8666 24.858H30.1333L30.0299 24.7192L26.9103 24.7614L26.817 24.858H26.6818C26.4486 24.858 26.249 25.0252 26.208 25.2548L20.3927 26.3671C20.3924 26.3076 20.3661 25.7972 20.3805 25.7389L20.735 24.4274C20.872 23.8727 21.1511 22.7377 21.6463 22.4881C21.7994 22.411 21.9632 22.3578 22.1364 22.3233L25.0244 21.7483C27.1567 21.3238 29.3257 21.11 31.4999 21.11C33.6742 21.11 35.8431 21.3238 37.9755 21.7483L40.8634 22.3233C41.597 22.4693 42.18 23.0264 42.3593 23.7525L42.9789 26.2618C42.9935 26.321 43.0005 26.3816 42.9999 26.442L37.4739 25.3853L36.8721 25.173Z" fill="#FFBF54"/>
<path d="M20.7055 26.3073L21.6463 22.4882C21.6463 22.4882 20.8886 22.8146 20.6406 23.7526L20.021 26.2617C20.0061 26.3221 19.9992 26.3807 20.0001 26.4423L20.7055 26.3073Z" fill="#FFA442"/>
<path d="M37.474 25.3852C37.3438 25.0346 37.0817 24.858 36.3181 24.858C36.5514 24.858 36.751 25.0252 36.792 25.2548L37.474 25.3852Z" fill="#FFA442"/>
<path d="M29.4392 23.2682H27.5112C27.1278 23.2682 26.817 23.579 26.817 23.9624V24.858H30.1333V23.9624C30.1333 23.579 29.8225 23.2682 29.4392 23.2682Z" fill="#FFA442"/>
<path d="M35.4888 23.2682H33.5608C33.1774 23.2682 32.8666 23.579 32.8666 23.9624V24.858H36.1829V23.9624C36.1829 23.579 35.8721 23.2682 35.4888 23.2682Z" fill="#FFA442"/>
<path d="M35.1037 23.9624H34.249L34.0324 24.055C33.8197 24.055 33.6473 24.2273 33.6473 24.44L33.6936 25.9465C33.6936 26.1591 33.3824 26.3315 33.1698 26.3315H29.8302C29.6175 26.3315 29.4451 26.1591 29.4451 25.9465V24.3474C29.4451 24.1348 29.2728 23.9624 29.0601 23.9624H28.2054L27.9888 24.055C27.7761 24.055 27.6038 24.2273 27.6038 24.44V28.3138H35.3499L35.4888 27.6196V24.3474C35.4888 24.1348 35.3163 23.9624 35.1037 23.9624Z" fill="#FFBF54"/>
<path d="M34.249 25.8687V23.9624H33.9399C33.7272 23.9624 33.5548 24.1348 33.5548 24.3474V25.9465C33.5548 25.9721 33.5521 26.1094 33.441 26.2196C33.3312 26.3287 33.1959 26.3314 33.1698 26.3315H33.7862C34.0418 26.3315 34.249 26.1243 34.249 25.8687Z" fill="#FFA442"/>
<path d="M28.2053 27.3882V23.9624H27.8962C27.6836 23.9624 27.5112 24.1348 27.5112 24.3474V28.4526H35.4887V27.6196H28.4367C28.309 27.6196 28.2053 27.5161 28.2053 27.3882Z" fill="#FFA442"/>
<path d="M40.4459 37.6776V41.1666C40.4459 41.1764 40.4452 41.1861 40.4448 41.1958C40.4296 41.5817 39.5216 41.7844 39.1319 41.7844L23.3699 41.7974C22.9704 41.7974 22.6466 41.4736 22.6466 41.0741L22.6929 37.6776C22.6929 37.5843 22.711 37.4919 22.7461 37.4054L26.1426 28.8857C26.2534 28.613 26.5184 28.4346 26.8126 28.4346L26.9953 28.3137H36.2119C36.5062 28.3137 36.7712 28.4921 36.882 28.7647L40.3926 37.4054C40.4278 37.4919 40.4459 37.5843 40.4459 37.6776Z" fill="#FFBF54"/>
<path d="M23.2482 40.9644V37.7197C23.2482 37.6903 23.2539 37.6611 23.2648 37.6338L26.9953 28.3137H26.788C26.4937 28.3137 26.2287 28.4921 26.1179 28.7647L22.6073 37.4054C22.5721 37.4918 22.5541 37.5843 22.5541 37.6776V41.1666C22.5487 41.5561 22.8879 41.8953 23.2774 41.8899H39.7226C40.1122 41.8899 40.4294 41.5816 40.4448 41.1958H23.4796C23.3518 41.1958 23.2482 41.0922 23.2482 40.9644Z" fill="#FFA442"/>
<path d="M36.5766 35.1018C36.5766 32.298 34.3038 30.0251 31.5 30.0251C30.2749 30.0251 29.1512 30.4591 28.2741 31.1817C27.1439 32.1128 26.5159 34.3699 26.5159 35.1018C26.5159 37.9056 28.6962 40.0859 31.5 40.0859C31.8677 40.0859 34.4876 39.4576 35.4187 38.3294C36.1429 37.4518 36.5766 36.3285 36.5766 35.1018Z" fill="#F7F3F1"/>
<path d="M32.1941 39.4844C29.3904 39.4844 27.1175 37.2115 27.1175 34.4077C27.1175 33.1826 27.5515 32.0588 28.274 31.1818C27.1439 32.1129 26.4233 33.5232 26.4233 35.1019C26.4233 37.9056 28.6962 40.1785 31.5 40.1785C33.0786 40.1785 34.4876 39.4596 35.4187 38.3294C34.5416 39.052 33.4192 39.4844 32.1941 39.4844Z" fill="#EAE2DF"/>
<path d="M32.4718 35.1018C32.4718 34.5651 32.0367 34.13 31.5 34.13C31.3697 34.13 31.2456 34.1558 31.1321 34.2023C30.7778 34.3473 30.5813 35.0752 30.5813 35.1018C30.5813 35.6386 30.9632 36.0205 31.5 36.0205C31.5938 36.0205 32.2545 35.824 32.3995 35.4697C32.4459 35.3562 32.4718 35.2321 32.4718 35.1018Z" fill="#EAE2DF"/>
<path d="M32.0315 35.5422C31.4948 35.5422 31.0597 35.1071 31.0597 34.5704C31.0597 34.4402 31.0856 34.3159 31.1321 34.2024C30.7779 34.3474 30.5281 34.6954 30.5281 35.1019C30.5281 35.6387 30.9632 36.0738 31.5 36.0738C31.9065 36.0738 32.2545 35.8241 32.3995 35.4698C32.286 35.5163 32.1617 35.5422 32.0315 35.5422Z" fill="#DDD3CE"/>
<path d="M32.3098 32.1525C32.3098 31.7052 31.9473 31.3427 31.5 31.3427C31.4216 31.3427 31.3467 31.3539 31.2751 31.3746C30.9377 31.4724 30.7455 32.0667 30.7455 32.1525C30.7455 32.5998 31.0528 32.907 31.5 32.907C31.5907 32.907 32.1784 32.7148 32.2774 32.3794C32.2987 32.3066 32.3098 32.2322 32.3098 32.1525Z" fill="#EAE2DF"/>
<path d="M32.0536 32.4087C31.6064 32.4087 31.2438 32.0461 31.2438 31.5988C31.2438 31.521 31.2545 31.4459 31.275 31.3746C30.9369 31.4719 30.6901 31.783 30.6901 32.1525C30.6901 32.5998 31.0526 32.9624 31.4999 32.9624C31.8694 32.9624 32.18 32.7175 32.2772 32.3793C32.206 32.3998 32.1315 32.4087 32.0536 32.4087Z" fill="#DDD3CE"/>
<path d="M32.3098 38.0511C32.3098 37.6038 31.9473 37.2412 31.5 37.2412C31.4216 37.2412 31.3467 37.2525 31.2751 37.2732C30.9377 37.3709 30.7455 37.9652 30.7455 38.0511C30.7455 38.4983 31.0528 38.8056 31.5 38.8056C31.5907 38.8056 32.1784 38.6134 32.2774 38.2779C32.2987 38.2051 32.3098 38.1308 32.3098 38.0511Z" fill="#EAE2DF"/>
<path d="M32.0536 38.3072C31.6064 38.3072 31.2438 37.9446 31.2438 37.4974C31.2438 37.4195 31.2545 37.3444 31.275 37.2732C30.9369 37.3705 30.6901 37.6816 30.6901 38.0511C30.6901 38.4983 31.0526 38.8609 31.4999 38.8609C31.8694 38.8609 32.18 38.616 32.2772 38.2779C32.206 38.2984 32.1315 38.3072 32.0536 38.3072Z" fill="#DDD3CE"/>
<path d="M34.864 33.6271C34.864 33.1798 34.5014 32.8173 34.0541 32.8173C33.9758 32.8173 33.9008 32.8285 33.8292 32.8492C33.4918 32.947 33.2997 33.5413 33.2997 33.6271C33.2997 34.0744 33.6069 34.3816 34.0541 34.3816C34.1448 34.3816 34.7325 34.1894 34.8314 33.854C34.8529 33.7812 34.864 33.7069 34.864 33.6271Z" fill="#EAE2DF"/>
<path d="M34.6078 33.8833C34.1605 33.8833 33.7979 33.5207 33.7979 33.0734C33.7979 32.9956 33.8087 32.9205 33.8292 32.8492C33.491 32.9465 33.2442 33.2576 33.2442 33.6271C33.2442 34.0744 33.6068 34.437 34.0541 34.437C34.4235 34.437 34.7341 34.1921 34.8314 33.8539C34.7602 33.8744 34.6856 33.8833 34.6078 33.8833Z" fill="#DDD3CE"/>
<path d="M29.7557 33.6271C29.7557 33.1798 29.3931 32.8173 28.9458 32.8173C28.8675 32.8173 28.7925 32.8285 28.7209 32.8492C28.3835 32.947 28.1913 33.5413 28.1913 33.6271C28.1913 34.0744 28.4986 34.3816 28.9459 34.3816C29.0366 34.3816 29.6242 34.1894 29.7232 33.854C29.7446 33.7812 29.7557 33.7069 29.7557 33.6271Z" fill="#EAE2DF"/>
<path d="M29.4995 33.8833C29.0522 33.8833 28.6896 33.5207 28.6896 33.0734C28.6896 32.9956 28.7004 32.9205 28.7209 32.8492C28.3827 32.9465 28.1359 33.2576 28.1359 33.6271C28.1359 34.0744 28.4985 34.437 28.9458 34.437C29.3152 34.437 29.6258 34.1921 29.7231 33.8539C29.6519 33.8744 29.5773 33.8833 29.4995 33.8833Z" fill="#DDD3CE"/>
<path d="M34.864 36.5763C34.864 36.1291 34.5014 35.7665 34.0541 35.7665C33.9758 35.7665 33.9008 35.7777 33.8292 35.7985C33.4918 35.8962 33.2997 36.4905 33.2997 36.5763C33.2997 37.0236 33.6069 37.3309 34.0541 37.3309C34.1448 37.3309 34.7325 37.1387 34.8314 36.8032C34.8529 36.7304 34.864 36.6561 34.864 36.5763Z" fill="#EAE2DF"/>
<path d="M34.6078 36.8325C34.1605 36.8325 33.7979 36.4699 33.7979 36.0226C33.7979 35.9448 33.8087 35.8697 33.8292 35.7985C33.491 35.8957 33.2442 36.2069 33.2442 36.5763C33.2442 37.0236 33.6068 37.3862 34.0541 37.3862C34.4235 37.3862 34.7341 37.1413 34.8314 36.8031C34.7602 36.8236 34.6856 36.8325 34.6078 36.8325Z" fill="#DDD3CE"/>
<path d="M29.7557 36.5763C29.7557 36.1291 29.3931 35.7665 28.9458 35.7665C28.8675 35.7665 28.7925 35.7777 28.7209 35.7985C28.3835 35.8962 28.1913 36.4905 28.1913 36.5763C28.1913 37.0236 28.4986 37.3309 28.9459 37.3309C29.0366 37.3309 29.6242 37.1387 29.7232 36.8032C29.7446 36.7304 29.7557 36.6561 29.7557 36.5763Z" fill="#EAE2DF"/>
<path d="M29.4995 36.8325C29.0522 36.8325 28.6896 36.4699 28.6896 36.0226C28.6896 35.9448 28.7004 35.8697 28.7209 35.7985C28.3827 35.8957 28.1359 36.2069 28.1359 36.5763C28.1359 37.0236 28.4985 37.3862 28.9458 37.3862C29.3152 37.3862 29.6258 37.1413 29.7231 36.8031C29.6519 36.8236 29.5773 36.8325 29.4995 36.8325Z" fill="#DDD3CE"/>
<path d="M26.109 40.2525H24.077C23.8853 40.2525 23.7299 40.0971 23.7299 39.9054C23.7299 39.7137 23.8853 39.5583 24.077 39.5583H26.109C26.3007 39.5583 26.4561 39.7137 26.4561 39.9054C26.4561 40.0971 26.3007 40.2525 26.109 40.2525Z" fill="#FFA442"/>
</svg>
