<svg width="64" height="64" viewBox="0 0 64 64" fill="none" xmlns="http://www.w3.org/2000/svg">
<circle cx="32" cy="32" r="32" fill="#FFF0E7"/>
<g clip-path="url(#clip0_86_337)">
<path d="M24.422 46L25.2452 40.4727L27.7796 39.0439L29.2437 40.4727L26.48 46H24.422Z" fill="#575C62"/>
<path d="M27.3032 40.4727L25.598 46H26.48L29.2437 40.4727H27.3032Z" fill="#2A292F"/>
<path d="M39.5781 46L38.7549 40.4727L36.2046 38.5938L34.7564 40.4727L37.52 46H39.5781Z" fill="#2A292F"/>
<path d="M36.6968 40.4727L38.402 46H37.52L34.7564 40.4727H36.6968Z" fill="#575C62"/>
<path d="M32.9993 24.5279C32.9154 24.5279 32.8307 24.503 32.7568 24.451C32.5661 24.3169 32.5203 24.0536 32.6544 23.8629L36.653 18.1792C36.7871 17.9885 37.0505 17.9428 37.2411 18.0769C37.4318 18.211 37.4776 18.4743 37.3435 18.665L33.345 24.3487C33.2627 24.4655 33.132 24.5279 32.9993 24.5279Z" fill="#777E84"/>
<path d="M31.1184 24.5279C30.9856 24.5279 30.855 24.4655 30.7728 24.3487L26.7743 18.6651C26.6402 18.4744 26.686 18.2111 26.8767 18.0769C27.0673 17.9428 27.3306 17.9886 27.4648 18.1793L31.4633 23.8629C31.5974 24.0536 31.5517 24.3168 31.361 24.451C31.287 24.503 31.2023 24.5279 31.1184 24.5279Z" fill="#777E84"/>
<path d="M44.1954 40.4726H19.8046C19.2655 40.4726 18.8285 40.0356 18.8285 39.4966V24.5139C18.8285 23.9748 19.2655 23.5378 19.8046 23.5378H44.1954C44.7345 23.5378 45.1715 23.9748 45.1715 24.5139V39.4965C45.1715 40.0356 44.7345 40.4726 44.1954 40.4726Z" fill="#AA5D29"/>
<path d="M23.5747 39.044C21.6174 39.044 20.0251 37.4516 20.0251 35.4944V28.5216C20.0251 26.5644 21.6174 24.972 23.5747 24.972H36.2046C38.1618 24.972 39.7542 26.5644 39.7542 28.5216V35.4945C39.7542 37.4517 38.1618 39.0441 36.2046 39.0441H23.5747V39.044Z" fill="#874C23"/>
<path d="M36.2046 25.4222H23.5748C21.863 25.4222 20.4754 26.8099 20.4754 28.5216V35.4944C20.4754 37.2061 21.863 38.5938 23.5748 38.5938H36.2046C37.9163 38.5938 39.304 37.2061 39.304 35.4944V28.5216C39.304 26.8098 37.9164 25.4222 36.2046 25.4222Z" fill="#3DA1B8"/>
<path d="M38.3608 28.5222V35.4937C38.3608 36.6838 37.3965 37.6529 36.2063 37.6529H23.5758C22.3856 37.6529 21.4166 36.6838 21.4166 35.4937V28.5222C21.4166 27.332 22.3857 26.363 23.5758 26.363H36.2063C37.3965 26.363 38.3608 27.3321 38.3608 28.5222Z" fill="#75D4FE"/>
<path d="M43.369 35.4342H41.174C40.9409 35.4342 40.7519 35.2452 40.7519 35.0121C40.7519 34.779 40.9409 34.59 41.174 34.59H43.369C43.6021 34.59 43.7911 34.779 43.7911 35.0121C43.7911 35.2452 43.6021 35.4342 43.369 35.4342Z" fill="#2A292F"/>
<path d="M43.369 33.6614H41.174C40.9409 33.6614 40.7519 33.4724 40.7519 33.2393C40.7519 33.0061 40.9409 32.8171 41.174 32.8171H43.369C43.6021 32.8171 43.7911 33.0061 43.7911 33.2393C43.7911 33.4724 43.6021 33.6614 43.369 33.6614Z" fill="#2A292F"/>
<path d="M43.369 37.2072H41.174C40.9409 37.2072 40.7519 37.0182 40.7519 36.785C40.7519 36.5519 40.9409 36.3629 41.174 36.3629H43.369C43.6021 36.3629 43.7911 36.5519 43.7911 36.785C43.7911 37.0182 43.6021 37.2072 43.369 37.2072Z" fill="#2A292F"/>
<path d="M22.8517 35.4938V28.5223C22.8517 27.3322 23.8208 26.363 25.0109 26.363H23.5758C22.3856 26.363 21.4166 27.3321 21.4166 28.5223V35.4938C21.4166 36.6839 22.3857 37.6529 23.5758 37.6529H25.0109C23.8208 37.6529 22.8517 36.6839 22.8517 35.4938Z" fill="#55C0E5"/>
<path d="M36.9257 35.4938V28.5223C36.9257 27.3322 35.9566 26.363 34.7665 26.363H36.2016C37.3918 26.363 38.3608 27.3321 38.3608 28.5223V35.4938C38.3608 36.6839 37.3918 37.6529 36.2016 37.6529H34.7665C35.9566 37.6529 36.9257 36.6839 36.9257 35.4938Z" fill="#9DE3FC"/>
<path d="M44.0163 29.0745C44.0163 30.0381 43.2351 30.8192 42.2716 30.8192C41.3081 30.8192 40.5269 30.038 40.5269 29.0745C40.5269 28.111 41.3081 27.3298 42.2716 27.3298C42.6003 27.3298 42.9076 27.4205 43.1698 27.5792C43.4147 27.726 43.6201 27.9315 43.767 28.1763C43.9257 28.4386 44.0163 28.7459 44.0163 29.0745Z" fill="#E8E8EA"/>
<path d="M43.767 28.1762L43.0876 28.8556C43.0049 28.9383 42.8968 28.9794 42.7888 28.9794C42.6807 28.9794 42.5727 28.9383 42.4905 28.8556C42.3256 28.6907 42.3256 28.4233 42.4905 28.2584L43.1698 27.5791C43.4147 27.726 43.6201 27.9314 43.767 28.1762Z" fill="#B9B9BA"/>
</g>
<defs>
<clipPath id="clip0_86_337">
<rect width="28" height="28" fill="white" transform="translate(18 18)"/>
</clipPath>
</defs>
</svg>
