<svg width="65" height="64" viewBox="0 0 65 64" fill="none" xmlns="http://www.w3.org/2000/svg">
<circle cx="32.8279" cy="32" r="32" fill="#CFEEF9"/>
<g clip-path="url(#clip0_85_83)">
<path d="M29.1049 19.7539H32.8555V25.4967H29.1049V19.7539Z" fill="#E7DDED"/>
<path d="M30.9805 19.7539H32.8555V25.4967H30.9805V19.7539Z" fill="#BEBBDE"/>
<path d="M46.7838 44.3217C46.7838 45.8006 45.5849 47 44.1054 47C42.626 47 41.4271 45.8006 41.4271 44.3217C41.4271 42.8422 44.1054 39.8099 44.1054 39.8099C44.1054 39.8099 46.7838 42.8422 46.7838 44.3217Z" fill="#00DCE6"/>
<path d="M46.7837 44.3217C46.7837 45.8006 45.5849 47 44.1054 47V39.8099C44.1054 39.8099 46.7837 42.8422 46.7837 44.3217Z" fill="#00AED6"/>
<path d="M46.918 37.625V39.5H41.293V37.625C41.293 36.0717 40.0338 34.8125 38.4805 34.8125H19.7305V29.1875H38.4805C40.8107 29.1875 42.9201 30.132 44.4465 31.659C45.9734 33.1859 46.918 35.2953 46.918 37.625Z" fill="#E7DDED"/>
<path d="M46.918 37.625V39.5H41.293V37.625C41.293 36.0717 40.0338 34.8125 38.4805 34.8125H30.9805V29.1875H38.4805C40.8107 29.1875 42.9201 30.132 44.4465 31.659C45.9734 33.1859 46.918 35.2953 46.918 37.625Z" fill="#BEBBDE"/>
<path d="M36.6055 32C36.6055 35.1066 34.0871 37.625 30.9805 37.625C27.8738 37.625 25.3555 35.1066 25.3555 32C25.3555 29.9182 26.4869 28.1006 28.168 27.1279V24.5H33.793V27.1279C35.474 28.1006 36.6055 29.9182 36.6055 32Z" fill="#F6EFEA"/>
<path d="M36.6055 32C36.6055 35.1066 34.0871 37.625 30.9805 37.625V24.5H33.793V27.1279C35.474 28.1006 36.6055 29.9182 36.6055 32Z" fill="#E7DDED"/>
<path d="M17.8279 26.3633H21.5779V37.6368H17.8279V26.3633Z" fill="#005F80"/>
<path d="M40.3829 38.6211H47.8279V40.3789H40.3829V38.6211Z" fill="#E7DDED"/>
<path d="M25.3555 17H36.6055V20.75H25.3555V17Z" fill="#005F80"/>
<path d="M30.9805 17H36.6055V20.75H30.9805V17Z" fill="#002C3D"/>
</g>
<defs>
<clipPath id="clip0_85_83">
<rect width="30" height="30" fill="white" transform="translate(17.8279 17)"/>
</clipPath>
</defs>
</svg>
